<svg xmlns="http://www.w3.org/2000/svg" width="2000" height="1554" viewBox="0 0 2000 1554" version="1.1"><path d="M 1260.250 19.739 C 1263.412 19.937, 1268.588 19.937, 1271.750 19.739 C 1274.912 19.541, 1272.325 19.378, 1266 19.378 C 1259.675 19.378, 1257.088 19.541, 1260.250 19.739 M 1206.349 44.372 C 1200.347 50.833, 1195.068 58, 1196.311 58 C 1196.544 58, 1197.995 56.087, 1199.537 53.750 C 1201.079 51.413, 1205.035 46.688, 1208.328 43.250 C 1211.622 39.813, 1214.065 37, 1213.757 37 C 1213.449 37, 1210.116 40.318, 1206.349 44.372 M 1324.741 40.092 C 1325.687 41.305, 1326.046 54.630, 1326.250 96.092 L 1326.518 150.500 1326.759 95.872 C 1326.984 44.868, 1326.884 41.154, 1325.250 39.872 C 1323.702 38.658, 1323.643 38.683, 1324.741 40.092 M 1372.308 148.748 C 1379.353 148.920, 1390.603 148.919, 1397.308 148.747 C 1404.014 148.574, 1398.250 148.433, 1384.500 148.434 C 1370.750 148.434, 1365.264 148.576, 1372.308 148.748 M 1335.287 149.740 C 1338.469 149.939, 1343.419 149.937, 1346.287 149.736 C 1349.154 149.535, 1346.550 149.372, 1340.500 149.374 C 1334.450 149.376, 1332.104 149.541, 1335.287 149.740 M 484.250 159.746 C 490.163 159.923, 499.837 159.923, 505.750 159.746 C 511.663 159.569, 506.825 159.425, 495 159.425 C 483.175 159.425, 478.337 159.569, 484.250 159.746 M 704.083 199.385 C 705.101 200.325, 725 209.966, 725 209.518 C 725 208.964, 705.440 199, 704.352 199 C 703.975 199, 703.854 199.173, 704.083 199.385 M 1376.287 226.740 C 1379.469 226.939, 1384.419 226.937, 1387.287 226.736 C 1390.154 226.535, 1387.550 226.372, 1381.500 226.374 C 1375.450 226.376, 1373.104 226.541, 1376.287 226.740 M 454.250 228.746 C 460.163 228.923, 469.837 228.923, 475.750 228.746 C 481.663 228.569, 476.825 228.425, 465 228.425 C 453.175 228.425, 448.337 228.569, 454.250 228.746 M 184.984 269.750 L 173.500 281.500 185.250 270.016 C 196.164 259.350, 197.454 258, 196.734 258 C 196.587 258, 191.300 263.288, 184.984 269.750 M 297.982 288.750 L 287.500 299.500 298.250 289.018 C 304.163 283.253, 309 278.415, 309 278.268 C 309 277.546, 307.718 278.765, 297.982 288.750 M 983.984 289.750 L 972.500 301.500 984.250 290.016 C 995.164 279.350, 996.454 278, 995.734 278 C 995.587 278, 990.300 283.288, 983.984 289.750 M 1071.500 350 C 1064.917 356.600, 1059.756 362, 1060.031 362 C 1060.306 362, 1065.917 356.600, 1072.500 350 C 1079.083 343.400, 1084.244 338, 1083.969 338 C 1083.694 338, 1078.083 343.400, 1071.500 350 M 870.395 410.500 C 870.396 418.200, 870.553 421.218, 870.743 417.206 C 870.934 413.195, 870.932 406.895, 870.741 403.206 C 870.549 399.518, 870.393 402.800, 870.395 410.500 M 245.395 416.500 C 245.396 424.200, 245.553 427.218, 245.743 423.206 C 245.934 419.195, 245.932 412.895, 245.741 409.206 C 245.549 405.518, 245.393 408.800, 245.395 416.500 M 1755.385 462 C 1755.385 468.875, 1755.545 471.688, 1755.740 468.250 C 1755.936 464.813, 1755.936 459.188, 1755.740 455.750 C 1755.545 452.313, 1755.385 455.125, 1755.385 462 M 937.999 501 C 942.763 505.675, 948.087 510.313, 949.830 511.307 C 954.418 513.921, 953.721 512.740, 948.750 509.474 C 946.413 507.938, 941.089 503.491, 936.919 499.591 C 930.974 494.030, 931.207 494.334, 937.999 501 M 1811.985 677.750 L 1799.500 690.500 1812.250 678.015 C 1819.263 671.148, 1825 665.411, 1825 665.265 C 1825 664.547, 1823.582 665.907, 1811.985 677.750 M 1467.797 682.745 C 1472.361 682.930, 1479.561 682.929, 1483.797 682.742 C 1488.034 682.555, 1484.300 682.404, 1475.500 682.405 C 1466.700 682.406, 1463.234 682.559, 1467.797 682.745 M 1468.292 765.742 C 1472.027 765.935, 1477.877 765.934, 1481.292 765.739 C 1484.706 765.545, 1481.650 765.387, 1474.500 765.389 C 1467.350 765.390, 1464.556 765.550, 1468.292 765.742 M 1940.714 883.458 C 1943.851 889.760, 1946.576 894.757, 1946.770 894.563 C 1947.212 894.121, 1936.160 872, 1935.497 872 C 1935.230 872, 1937.577 877.156, 1940.714 883.458 M 60.436 964.191 C 56.272 968.146, 51.476 973.209, 49.778 975.441 C 48.080 977.673, 49.481 976.479, 52.891 972.788 C 56.301 969.096, 61.425 964.033, 64.278 961.538 C 67.131 959.042, 69.137 957, 68.736 957 C 68.334 957, 64.599 960.236, 60.436 964.191 M 1830.392 1037 C 1830.392 1044.425, 1830.549 1047.463, 1830.742 1043.750 C 1830.934 1040.037, 1830.934 1033.963, 1830.742 1030.250 C 1830.549 1026.537, 1830.392 1029.575, 1830.392 1037 M 175.415 1070 C 175.415 1080.175, 175.564 1084.338, 175.745 1079.250 C 175.927 1074.162, 175.927 1065.838, 175.745 1060.750 C 175.564 1055.662, 175.415 1059.825, 175.415 1070 M 252.982 1251.250 C 262.718 1261.235, 264 1262.454, 264 1261.732 C 264 1261.585, 259.163 1256.747, 253.250 1250.982 L 242.500 1240.500 252.982 1251.250 M 961 1280.500 C 967.307 1286.825, 972.692 1292, 972.967 1292 C 973.242 1292, 968.307 1286.825, 962 1280.500 C 955.693 1274.175, 950.308 1269, 950.033 1269 C 949.758 1269, 954.693 1274.175, 961 1280.500 M 482.304 1342.747 C 488.247 1342.924, 497.697 1342.923, 503.304 1342.745 C 508.912 1342.567, 504.050 1342.422, 492.500 1342.423 C 480.950 1342.424, 476.362 1342.570, 482.304 1342.747 M 1398.287 1343.740 C 1401.469 1343.939, 1406.419 1343.937, 1409.287 1343.736 C 1412.154 1343.535, 1409.550 1343.372, 1403.500 1343.374 C 1397.450 1343.376, 1395.104 1343.541, 1398.287 1343.740 M 1342.803 1344.746 C 1348.470 1344.925, 1357.470 1344.924, 1362.803 1344.745 C 1368.136 1344.565, 1363.500 1344.419, 1352.500 1344.420 C 1341.500 1344.421, 1337.136 1344.568, 1342.803 1344.746 M 204 1350.497 C 204 1351.160, 226.121 1362.212, 226.563 1361.770 C 226.757 1361.576, 221.760 1358.851, 215.458 1355.714 C 209.156 1352.577, 204 1350.230, 204 1350.497 M 710 1361.500 C 703.125 1365.018, 697.844 1367.919, 698.265 1367.948 C 699.328 1368.020, 723 1356.099, 723 1355.492 C 723 1354.808, 723.799 1354.439, 710 1361.500 M 1069 1360.497 C 1069 1361.160, 1091.121 1372.212, 1091.563 1371.770 C 1091.757 1371.576, 1086.760 1368.851, 1080.458 1365.714 C 1074.156 1362.577, 1069 1360.230, 1069 1360.497 M 1397.292 1423.742 C 1401.027 1423.935, 1406.877 1423.934, 1410.292 1423.739 C 1413.706 1423.545, 1410.650 1423.387, 1403.500 1423.389 C 1396.350 1423.390, 1393.556 1423.550, 1397.292 1423.742" stroke="none" fill="#8f9ed8" fill-rule="evenodd"/><path d="M 1247.365 21.436 C 1199.452 32.306, 1183.017 63.980, 1182.992 145.500 L 1182.981 177.500 1166.741 182.754 C 998.602 237.151, 882.654 371.547, 918.244 470.787 C 935.133 517.881, 1009.858 542.116, 1033.406 508.136 L 1035.972 504.433 1033.080 492.966 C 1014.246 418.291, 1035.654 370.558, 1112.750 315.329 C 1128 304.405, 1178.366 276, 1182.488 276 C 1182.769 276, 1183 510.675, 1183 797.500 C 1183 1084.325, 1182.768 1319, 1182.484 1319 C 1181.074 1319, 1154.935 1309.148, 1143.500 1304.307 C 1020.385 1252.185, 944 1153.961, 944 1047.770 L 944 1038.028 940.250 1035.553 C 929.200 1028.259, 910.032 1026.948, 898.657 1032.708 C 895.011 1034.554, 895.375 1035.522, 894.059 1020.500 C 885.237 919.788, 840.319 837.817, 767.500 789.542 C 710.334 751.644, 651.798 726.412, 518 681.993 C 417.944 648.777, 364.727 624.797, 330.500 597.506 C 223.109 511.876, 214.540 354.131, 312.966 274.738 C 429.553 180.696, 668.328 235.228, 710.375 365.500 C 723.547 406.308, 721.556 471.898, 706.360 497.829 L 703.699 502.369 705.981 506.671 C 719.119 531.435, 784.205 543.063, 817.500 526.594 C 874.946 498.180, 888.430 392.056, 843.951 318.419 C 778.842 210.628, 630.802 150.051, 459 160.899 C 220.066 175.987, 80.278 321.278, 108.555 525.142 C 120.724 612.874, 166.559 679.681, 246 725.477 C 295.462 753.990, 317.803 763.077, 473.500 818.014 C 554.128 846.464, 609.017 870.788, 641.430 892.434 C 842.404 1026.646, 746.765 1335.464, 502 1342.652 C 280.684 1349.152, 128.420 1175.449, 186.630 982.879 L 189.236 974.259 186.539 969.656 C 178.026 955.130, 147.954 945.964, 109 946.021 C 5.178 946.173, -13.811 1140.190, 79.052 1252 C 286.516 1501.791, 799.269 1450.634, 880.202 1172.070 C 881.961 1166.018, 883.580 1161.247, 883.801 1161.467 C 884.022 1161.688, 886.430 1167.411, 889.153 1174.184 C 940.703 1302.426, 1091.483 1399.700, 1268.500 1418.916 C 1477.155 1441.566, 1716.132 1396.793, 1836.500 1312.499 C 1989.614 1205.272, 2024.410 986.436, 1912.298 835.793 C 1881.090 793.860, 1802.011 741.267, 1752.250 729.350 C 1743.212 727.185, 1743.116 727.534, 1754.557 720.977 C 1818.275 684.463, 1871.117 619.831, 1889.530 555.891 C 1960.727 308.655, 1747.904 143.465, 1365.750 149.341 L 1326 149.953 1326 95.527 L 1326 41.101 1319.750 36.667 C 1299.750 22.479, 1270.186 16.258, 1247.365 21.436 M 1360.589 227.070 C 1350.439 227.796, 1338.843 229.385, 1334.750 230.611 C 1333.086 231.109, 1333 258.522, 1333 788.067 L 1333 1345 1346.250 1344.978 C 1666.920 1344.435, 1817.525 1255.106, 1830.083 1058 C 1841.922 872.175, 1729.039 774.196, 1493.500 765.857 C 1442.869 764.065, 1431.454 755.640, 1429.304 718.479 C 1427.690 690.571, 1436.338 684.259, 1478 682.938 C 1647.734 677.557, 1724.624 631.634, 1749.393 520.848 C 1777.988 392.944, 1718.117 301.288, 1575.500 254.640 C 1514.229 234.599, 1421.544 222.709, 1360.589 227.070" stroke="none" fill="#4c64bc" fill-rule="evenodd"/></svg>